<svg xmlns="http://www.w3.org/2000/svg" viewBox="0 0 625 583" width="625" height="583"><defs><linearGradient id="15782329345392279757" x1="-320.967085360398" x2="301.58071175092147" y1="10.543468136898468" y2="10.543468136898468" gradientTransform="matrix(0.001606302,0,0,0.001715141,0.515570189,0.481916467)"><stop stop-color="#1871c5" stop-opacity="0.996" /><stop offset="1" stop-color="#5bc1fa" stop-opacity="0.996" /></linearGradient></defs><g transform="matrix(1,0,0,1,320.887007235,281.059814453)">
<g>
	<g transform="matrix(1,0,0,1,0.080078125,-0.08203125)">
		<path d="M107.031293,-71.136328C107.031293,-71.136328 105.693403,292.346094 105.693403,292.346094 C105.693403,292.346094 107.008246,302.064719 97.153559,302.064719 Q92.906463,302.064719 -108.900092,301.93562 C-108.900092,301.93562 -121.157275,291.476385 -121.157275,291.476385 C-121.157275,299.476385 -122.376259,-46.576696 -122.380756,-57.202858 C-122.386051,-69.712188 -132.442613,-68.479687 -132.442613,-68.479687 C-132.442613,-68.479687 -303.375017,-68.423373 -308.723975,-68.494971 C-320.944434,-68.658545 -320.058203,-80.850928 -320.058203,-80.850928 L -320.905474,-269.544678 C-320.905474,-269.544678 -322.525391,-280.977783 -309.152545,-280.977783 C-307.853112,-280.977783 289.572577,-278.273573 289.572577,-278.273573 C289.572577,-278.273573 300.9309,-279.125014 300.49787,-267.821303 C300.399067,-265.242157 301.580712,-69.836719 301.580712,-69.836719 C301.580712,-69.836719 107.031293,-71.136328 107.031293,-71.136328 Z" fill="url('#15782329345392279757')"/>
	</g>
	<g transform="matrix(1,0,0,1,0.080078125,-0.08203125)">
		<path d="M185.085538,-141.320225C185.085538,-157.820225 177.836796,-166.59742 177.266788,-166.887413 C176.716801,-167.167412 158.778056,-201.315538 157.948038,-201.315538 C157.118021,-201.315538 129.873051,-212.482725 127.673038,-212.482725 C126.375726,-212.482725 111.099349,-207.488491 97.821852,-202.375071 C88.583059,-198.817033 80.312064,-195.201288 78.391788,-193.170225 C73.711796,-188.220229 58.416788,-165.390538 58.416788,-165.390538 C58.416788,-163.740544 52.541776,-151.450224 51.991788,-151.170225 C51.391782,-150.870222 61.283652,-100.817424 63.763663,-95.587413 C66.653678,-89.497417 126.085538,-55.906163 126.085538,-55.906163 C126.085538,-55.906163 132.215238,-34.440215 132.765226,-34.170225 C133.315214,-33.900236 131.548026,25.538826 130.998038,28.018837 C130.448051,30.498848 95.175535,102.109139 93.525541,104.58915 C91.875547,107.06916 60.277714,139.271669 59.727726,139.00165 C59.177738,138.73163 58.957413,111.480067 58.957413,109.000087 C58.957413,106.520107 47.516483,45.709488 47.516483,44.609482 C47.516483,43.509476 17.762158,-8.024913 17.762158,-8.024913 C17.762158,-8.024913 -44.389156,-40.200515 -46.319149,-41.300521 C-47.0889,-41.739243 -55.139558,-44.703652 -64.469535,-48.350259 C-78.53256,-53.846772 -92.983974,-54.34861 -92.307749,-56.631967 C-91.330229,-59.932688 -88.87263,-68.534311 -88.482066,-69.055063 C-88.328214,-69.261449 -43.096041,-178.076117 9.324373,-215.82243 C12.480577,-218.095115 52.34649,-252.152969 101.089173,-261.480356 C143.089173,-269.517465 183.100411,-265.676094 215.194922,-244.274219 C242.923688,-225.783594 258.268933,-198.762722 258.261586,-198.747934 C258.261586,-198.747934 185.085538,-141.320225 185.085538,-141.320225 Z" fill="#f13934"/>
	</g>
	<g transform="matrix(1,0,0,1,0.080078125,-0.08203125)">
		<path d="M109.622933,-55.060003C109.622933,-55.060003 124.068125,-49.492381 130.559651,-52.171721 C133.168883,-53.248667 192.458984,-129.870361 192.458984,-129.870361 C192.458984,-131.671957 195.583072,-150.519262 190.931641,-166.97168 C188.211008,-176.594737 173.024625,-202.876625 150.333008,-211.695312 C138.203187,-216.409348 97.816147,-219.103296 74.390137,-199.732422 C62.867127,-190.204091 49.973151,-172.470906 47.561537,-148.069824 C46.607383,-138.415546 47.723594,-107.225824 61.370117,-88.767733 C78.70425,-65.321837 109.622933,-55.060003 109.622933,-55.060003 Z" fill="#ffffff"/>
	</g>
	<g transform="matrix(1,0,0,1,0.080078125,-0.08203125)">
		<path d="M121.634227,-181.334393C131.273876,-181.334393 143.134227,-177.614081 143.134227,-160.334393 C143.134227,-145.428924 130.031883,-139.334393 122.134227,-139.334393 C115.270946,-139.334393 101.134227,-145.287518 101.134227,-160.334393 C101.134227,-170.192206 109.138133,-181.334393 121.634227,-181.334393 Z" fill="#3a3a3a"/>
	</g>
	<g transform="matrix(1,0,0,1,0.080078125,-0.08203125)">
		<path d="M-101,-34C-101,-34 -101,-34 -101,-34 C-101,-34 43.759024,43.062015 47.034286,71.046875 C50.724405,102.576394 33.826948,152.887459 34.072528,156.064688 C32.49737,156.852259 -5.86582,230.240174 -28.861779,244.8375 C-51.123246,258.968587 -120.842866,294.476385 -120.842866,294.476385 C-120.842866,294.476385 -121.157275,206.535868 -121.157275,163.085856 C-121.157275,141.689131 -120.390567,95.211109 -115.526123,53.057861 C-110.512413,9.611132 -101.390812,-29.279741 -101,-34 C-101,-34 -101,-34 -101,-34 Z" fill="#5aba27" fill-opacity="0.996"/>
	</g>
	<g transform="matrix(1,0,0,1,0.080078125,-0.08203125)">
		<path d="M-99.537337,-41.751317C-99.537337,-41.751317 -101.256885,-32.21432 -101.256885,-32.21432 C-101.256885,-32.21432 -64.601172,1.862821 -47.058838,46.831299 C-28.681756,93.939592 -29.271068,139.045573 -28.861779,144.340825 C-28.861779,144.340825 -1.193002,128.34387 17.67662,100.023438 C30.661465,80.535159 40.165242,56.227981 39.524414,53.362305 C39.491195,53.345998 35.027309,13.091231 3.389648,-9.755859 C-32.714856,-35.828675 -99.537337,-41.751317 -99.537337,-41.751317 Z" fill="#f8dc10"/>
	</g>
	<g transform="matrix(1,0,0,1,0.080078125,-0.08203125)">
		<path d="M-28.861779,144.340825C-28.394014,173.360706 -22.14318,226.262803 -68.778488,263.897659 C-83.056223,275.41984 -120.642755,294.476385 -120.842866,294.476385 C-120.842866,293.730656 -121.124454,193.503475 -121.124454,193.503475 C-120.960392,193.661287 -98.465869,184.654401 -70.291016,170.748047 Q-53.975849,162.695317 -28.861779,144.340825 " fill="#008b58" fill-opacity="0.996"/>
	</g>
	<g transform="matrix(1,0,0,1,0.080078125,-0.08203125)">
		<path d="M223.18042,-61.583618C224.333532,-57.916989 231.536767,-41.812847 231.037598,-22.834717 C230.367647,2.636439 224.330078,29.603906 229.384766,30.953125 C236.61377,35.658936 282.546298,-0.483251 298.362305,-41.751317 C305.134667,-59.422168 307.834987,-108.089603 297.252686,-145.650391 C292.406038,-162.853067 277.144632,-193.681509 258.306641,-198.724609 C239.971042,-203.633214 218.137678,-183.153372 207.10376,-171.076416 C188.450534,-150.659899 174.392585,-113.091127 172.921377,-111.494858 C169.903732,-108.220696 153.819476,-104.65257 143.134227,-93.076904 C137.031831,-86.465987 125.461817,-74.535917 124.088651,-51.526099 C122.545402,-25.666224 138.521484,-2.841406 125.608398,28.76123 C106.598697,75.284324 67.721333,129.063125 67.171626,129.522883 C65.521632,130.902888 62.171626,128.772883 62.171626,126.022883 C62.171626,123.272883 80.33643,44.194125 23.405859,-9.522656 C1.982422,-29.736719 -38.331854,-37.55625 -62.397266,-58.466406 C-76.41316,-70.644653 -60.779713,-102.096991 -56.853516,-111.677734 C-46.998187,-135.7268 -29.951287,-159.092447 -23.799805,-163.647461 C-8.04724,-175.311827 11.294182,-171.136974 13.091309,-172.321533 C16.886719,-174.823242 -11.875663,-177.056734 -12.884033,-181.334393 C-13.701682,-184.802985 14.148601,-182.936419 16.982422,-185.972656 C18.376953,-187.466797 1.074358,-188.441508 -1.022461,-194.801758 C-3.555057,-202.483844 9.369427,-215.799105 9.369427,-215.799105 C9.369427,-215.799105 -13.318573,-199.508655 -34.768033,-173.938737 C-41.008623,-166.499325 -56.142074,-145.510092 -68.471689,-122.099842 C-83.021316,-94.474453 -94.492023,-64.434502 -94.780838,-63.15323 C-95.928394,-58.062309 -99.461001,-42.391277 -99.60609,-41.369995 C-99.60609,-41.369995 -27.311962,-29.030589 10.32447,6.268902 C43.963094,37.818818 43.171626,92.902982 43.171626,96.522883 C43.171626,100.522176 44.133777,134.643589 29.44638,163.651167 C23.737767,174.925664 4.538051,206.838554 -21.567383,229.683838 C-57.109148,260.787007 -118.508367,290.022883 -120.828374,290.022883 C-120.828374,290.022883 -120.828374,293.022883 -120.828374,293.022883 C-120.828374,293.022883 -121.099281,297.372314 -121.099281,297.372314 Q-121.099281,302.708438 -113.64209,301.976412 C-113.64209,301.976412 -73.475134,302.022179 -73.475134,302.022179 C-73.475134,302.022179 -3.891527,251.342783 30.088379,213.65625 C48.666782,193.05126 106.195865,123.599121 134.383984,71.800781 C163.946289,17.477246 147.898438,-32.842194 147.898438,-37.242188 C147.898438,-38.24191 174.591773,-34.580513 197.97229,-42.748779 C209.357788,-46.72644 221.180908,-54.951538 223.18042,-61.583618 " fill="#383939" fill-opacity="0.988"/>
	</g>
	<g transform="matrix(1,0,0,1,0.080078125,-0.08203125)">
		<path d="M254.000732,-178.693604C249.291016,-178.693604 236.101573,-173.935922 223.035156,-160.334393 C209.830123,-146.588571 199.128357,-121.257449 196.861572,-113.596436 C195.228861,-108.07839 226.856075,-96.680111 238.684886,-70.256869 C251.314622,-42.044519 244.271801,1.141999 244.753906,2.198242 C246.268816,5.517253 275.482087,-21.770536 285.881836,-59.585938 C294.694342,-91.629833 285.570268,-133.784942 281.788818,-143.755859 C273.326031,-166.070513 259.685905,-178.693604 254.000732,-178.693604 Z" fill="#ffffff"/>
	</g>
</g></g></svg>