<svg xmlns="http://www.w3.org/2000/svg" viewBox="0 0 632 586" width="632" height="586"><defs></defs><g transform="matrix(1,0,0,1,324.192700915,280.357103126)">
<g>
	<g>
		<path d="M304.807299,-127.357103C304.807299,-127.357103 305.817092,-120.453093 305.817092,-120.453093 C305.817092,-120.453093 305.817092,-120.453093 305.817092,-120.453093 C305.817092,-120.453093 306.083444,-273.713388 306.083444,-276.294425 C306.083444,-278.875463 304.45321,-280.365623 302.429147,-280.152003 C300.405085,-279.938384 -321.435193,-280.34765 -320.135794,-280.357103 C-324.028372,-280.357103 -324.192701,-276.798039 -324.192701,-276.798039 L -324.192701,-96.062687 C-324.192701,-96.062687 -324.192701,-90.712101 -318.52056,-90.499211 C-313.174887,-90.298573 -124.241211,-90.201045 -124.241211,-90.201045 C-124.241211,-90.201045 -123.012886,-89.909671 -122.623951,-89.308666 C-122.235016,-88.70766 -121.980255,-87.084075 -121.980255,-87.084075 C-121.980255,-87.084075 -121.192701,229.339894 -121.192701,233.247145 C-121.192701,239.467146 -101.192701,28.962538 -101.192701,24.282545 C-101.192701,19.602553 -73.742689,-75.250963 -73.192701,-76.07097 C-73.192701,-76.07097 -34.608259,-123.519213 -34.878248,-123.519213 C-35.148237,-123.519213 29.537188,-203.830614 31.187182,-205.210619 C32.837176,-206.590624 99.807299,-239.637377 99.807299,-239.637377 C101.017291,-240.54738 125.315844,-246.459642 157.535815,-246.459642 C189.755785,-246.459642 202.985217,-242.151048 205.185229,-242.151048 C207.625231,-242.151048 244.230151,-218.194216 244.230151,-217.644213 C244.230151,-217.094209 287.727282,-164.287096 291.307299,-156.857103 C294.887316,-149.42711 302.417284,-128.157106 304.807299,-127.357103 Z" fill="#0185e1" fill-opacity="0.996"/>
	</g>
	<g>
		<path d="M242.951596,-207.923463C233.651608,-203.053468 202.293068,-166.04347 201.193093,-165.223463 C200.093117,-164.403456 185.130593,-141.296901 185.130593,-141.296901 C185.130593,-157.796901 177.88185,-166.574095 177.311843,-166.864088 C176.761855,-167.144087 158.82311,-201.292213 157.993093,-201.292213 C157.163075,-201.292213 129.918105,-212.459401 127.718093,-212.459401 C126.42078,-212.459401 111.144403,-207.465167 97.866906,-202.351746 C88.628113,-198.793708 80.357118,-195.177963 78.436843,-193.146901 C73.75685,-188.196904 58.461843,-165.367213 58.461843,-165.367213 C58.461843,-163.717219 52.58683,-151.426899 52.036843,-151.146901 C51.436836,-150.846898 61.328707,-100.794099 63.808718,-95.564088 C66.698732,-89.474092 126.130593,-55.882838 126.130593,-55.882838 C126.130593,-55.882838 132.260292,-34.41689 132.81028,-34.146901 C133.360268,-33.876912 131.59308,25.562151 131.043093,28.042162 C130.493105,30.522173 95.220589,102.132463 93.570595,104.612474 C91.920601,107.092485 60.322768,139.294994 59.77278,139.024974 C59.222792,138.754955 59.002468,111.503392 59.002468,109.023412 C59.002468,106.543431 52.42903,44.174386 52.42903,43.07438 C52.42903,41.974374 17.807212,-8.001588 17.807212,-8.001588 C17.807212,-8.001588 -44.344102,-40.17719 -46.274095,-41.277196 C-48.204088,-42.377202 -96.528947,-54.542334 -96.798936,-55.092322 C-97.068925,-55.64231 -93.209404,-69.026906 -92.369407,-70.146901 C-92.148777,-70.442868 -70.815001,-128.70239 -36.261031,-172.086984 C-4.722817,-211.685114 39.943697,-236.559799 47.130593,-240.503346 C54.17793,-244.370315 92.529324,-257.85306 130.248438,-259.492187 C146.153929,-260.183379 180.841674,-257.429827 208.982812,-247.209375 C237.867618,-236.718835 260.006884,-218.73971 259.798313,-218.319869 C259.798313,-218.319869 248.891599,-211.033464 242.951596,-207.923463 Z" fill="#f13934"/>
	</g>
	<g>
		<path d="M185.123616,-141.211058C185.123616,-141.211058 185.095091,-142.971653 185.095091,-142.971653 C185.095091,-146.916239 190.735719,-160.570801 188.861328,-172 C186.335789,-187.39961 175.326601,-201.446493 167.261995,-207.65844 C159.757193,-213.439186 144.331371,-218.554839 128.93125,-218.556735 C113.595474,-218.558623 98.279711,-213.463823 93.440002,-211.069531 C88.287322,-208.520406 75.03063,-203.061277 66.594727,-193 C56.476974,-180.932827 51.464915,-164.16002 51.122933,-163.560003 C50.022926,-161.63001 47.122933,-146.730001 47.122933,-137.060003 C47.122933,-132.88297 46.288453,-122.2393 49.74012,-111.227971 C54.279214,-96.74759 64.164903,-81.085074 72.49637,-73.205315 C87.079156,-59.413167 109.622933,-55.060003 109.622933,-55.060003 C109.622933,-55.060003 124.068125,-49.492381 130.559651,-52.171721 C133.168883,-53.248667 137.469027,-80.40416 149.273714,-102.752418 C162.782576,-128.326966 183.880176,-138.729536 185.123616,-141.211058 Z" fill="#ffffff"/>
	</g>
	<g>
		<path d="M227.013682,-75.694624C223.953278,-83.585494 218.965665,-89.649994 212.233887,-95.253906 C209.736238,-97.33309 196.216151,-104.438002 182.724609,-102.692415 C170.391492,-101.09671 158.021821,-90.9537 155.354004,-86.378174 C148.424665,-74.493787 148.541143,-56.71923 148.541143,-54.283137 C148.541143,-49.883143 152.058355,-21.502894 152.328374,-13.522883 C152.446968,-10.018019 154.455327,18.194252 145.02271,44.939031 C132.978782,79.087791 108.828374,112.977117 108.828374,112.977117 C108.828374,112.977117 88.505945,146.596698 64.239385,176.477117 C39.754397,206.626495 10.555303,234.576379 10.555303,234.852605 C10.555303,235.402593 -73.818386,304.976412 -73.818386,304.976412 C-73.818386,304.976412 -118.690181,304.865788 -118.690181,304.865788 Q-121.270907,304.976412 -121.270907,302.855779 L -121.171626,292.977117 C-121.171626,292.977117 -121.171626,292.977117 -121.171626,292.977117 C-118.851619,292.977117 -102.35133,282.591263 -101.801343,282.591263 C-101.251355,282.591263 -41.916957,239.671086 -22.396968,220.151067 C-2.876979,200.631047 12.828374,181.307134 12.828374,180.477117 C12.828374,179.647099 29.278386,150.747136 29.828374,150.477117 C30.091671,150.347849 38.346273,125.682909 38.346273,124.249424 C38.346273,121.499424 42.828374,104.14713 42.828374,96.477117 C42.828374,88.807103 38.828374,68.407109 38.828374,66.477117 C38.828374,64.547124 33.828374,47.407109 33.828374,45.477117 C33.828374,43.14713 21.828374,24.297124 21.828374,23.477117 C21.828374,22.657109 12.228368,10.597112 7.828374,6.477117 C3.42838,2.357121 -3.291621,-2.37289 -4.671626,-4.022883 C-6.051631,-5.672877 -22.441615,-16.042872 -27.671626,-18.522883 C-32.901637,-21.002894 -56.401637,-29.472896 -56.671626,-30.022883 C-56.941615,-30.572871 -92.401637,-39.472896 -92.671626,-40.022883 C-92.671626,-40.022883 -100.171626,-41.022883 -100.171626,-41.022883 C-100.171626,-41.022883 -100.171626,-41.022883 -100.171626,-41.022883 C-100.171626,-41.022883 -99.828374,-40.977117 -99.828374,-40.977117 C-99.828374,-40.977117 -98.753087,-48.347048 -97.518171,-54.062209 C-96.809378,-57.342486 -96.161076,-60.092708 -95.876202,-60.623791 C-95.606213,-62.003795 -94.721614,-63.022883 -93.171626,-63.022883 C-93.171626,-63.022883 -93.171626,-63.022883 -93.171626,-63.022883 C-93.171626,-63.022883 -45.941615,-50.572871 -45.671626,-50.022883 C-45.401637,-49.472896 -19.151637,-39.902888 -16.671626,-38.522883 C-14.191615,-37.142879 9.278386,-21.022883 9.828374,-21.022883 C10.378362,-21.022883 16.448369,-15.62289 23.328374,-9.022883 C30.208379,-2.422877 42.508367,14.427129 43.328374,14.977117 C44.148381,15.527104 47.758367,22.047124 51.328374,29.477117 C54.898381,36.907109 57.828374,43.87711 57.828374,44.977117 C57.828374,45.448603 60.523048,53.08165 62.202594,61.280526 C64.44153,72.210118 65.828374,85.003408 65.828374,91.477117 C65.828374,102.807103 65.438359,110.167119 64.828374,110.477117 C64.278386,110.747106 61.828374,123.227117 61.828374,125.977117 C61.828374,128.727117 65.17838,130.857121 66.828374,129.477117 C68.478368,128.097112 83.17838,107.957128 84.828374,105.477117 C86.478368,102.997106 111.948369,62.497106 113.328374,59.477117 C114.708379,56.457128 122.596517,40.242569 124.437749,31.456609 C127.27918,17.897918 128.494643,-0.354189 128.828374,-2.022883 C129.378362,-4.772883 127.440862,-30.31393 126.860845,-30.603938 C126.310857,-30.873927 124.347417,-54.637477 124.347417,-61.237483 C124.347417,-65.350067 127.368038,-83.850405 132.462861,-97.168904 C136.039899,-106.519726 143.240305,-113.823435 144.828374,-115.522883 C148.67835,-119.642879 175.666461,-136.570414 178.416461,-139.050425 C181.246479,-141.600413 185.670378,-156.457217 193.254888,-167.937312 C201.547003,-180.488456 213.801772,-192.831156 217.823369,-196.711726 C230.223394,-208.661723 253.446295,-222.654023 261.009225,-217.468718 C275.164765,-207.763379 290.845231,-180.316001 293.178594,-175.473323 C296.758611,-168.04333 304.558355,-146.402888 304.828374,-145.022883 C305.098394,-143.642879 307.828374,-125.472896 307.828374,-115.022883 C307.828374,-104.572871 306.387944,-84.539485 301.431157,-66.116633 C298.667121,-59.630316 291.378485,-37.613561 277.457769,-20.826106 C258.806663,1.665883 233.935547,20.283203 227.328374,17.977117 C224.908391,17.007115 224.848394,16.747106 225.328374,9.477117 C225.598394,5.357121 231.429326,-25.533412 231.429326,-32.683406 C230.933851,-59.446908 229.700014,-67.196874 226.999272,-75.784602 " fill="#383939" fill-opacity="0.988"/>
	</g>
	<g>
		<path d="M246.5,-192.5C247.880005,-193.320007 249.450012,-194 250,-194 C250.549988,-194 252.349976,-192.880005 254,-191.5 C254.781329,-190.846532 268.627991,-182.647437 276.174805,-166.772461 C284.565478,-149.122399 290.990591,-105.243245 288.837891,-88.432617 C286.62355,-71.140634 278.557751,-55.115533 278,-54 C277.471731,-52.943434 272.468752,-40.328905 265.539062,-30.572266 C258.039559,-20.013357 248.571707,-12.285854 248,-12 C246.900024,-11.450012 245.549988,-11.230011 245,-11.5 C244.450012,-11.769989 244,-13.570007 244,-15.5 C244,-17.429993 248,-35.829987 248,-49.5 C248,-56.09645 247.657601,-73.951411 240.576172,-89.021484 C237.075309,-96.471711 229.839652,-108.019519 220.029297,-115.724609 C209.58319,-123.929022 196.639247,-128.077128 196.5,-128.5 C196.22998,-129.320007 196.450012,-130.899994 197,-132 C197.549988,-133.100006 198.900024,-135.570007 200,-137.5 C201.099976,-139.429993 220.919983,-169.149994 224.5,-173 C228.080017,-176.850006 233.919983,-182.470001 237.5,-185.5 C241.080017,-188.529999 245.119995,-191.679993 246.5,-192.5 C246.5,-192.5 246.5,-192.5 246.5,-192.5 Z" fill="#ffffff"/>
	</g>
	<g>
		<path d="M120.589166,-186.578067C130.228814,-186.578067 142.089166,-182.857755 142.089166,-165.578067 C142.089166,-150.672599 128.986822,-144.578067 121.089166,-144.578067 C114.225884,-144.578067 100.089166,-150.531192 100.089166,-165.578067 C100.089166,-175.43588 108.093072,-186.578067 120.589166,-186.578067 Z" fill="#3a3a3a"/>
	</g>
	<g>
		<path d="M-99.537337,-41.751317C-99.537337,-41.751317 -81.521083,-39.30675 -64.075938,-34 C-46.582279,-28.678493 -27.162386,-19.527665 -24.54375,-18.285937 C-21.934574,-17.048697 -5.694362,-8.099157 6.792188,3.705469 C13.291413,9.849754 24.372089,23.112756 30.322656,35.130859 C35.855626,46.305559 36.498059,56.495831 36.569187,56.530748 C38.141268,63.560835 28.234558,88.876275 27.68457,90.806268 C27.134583,92.73626 -0.834098,136.557114 -9.003933,144.530273 C-17.442878,152.766063 -33.226284,159.327749 -33.226284,159.327749 C-34.026272,148.977773 -28,138.849976 -28,135 C-28,131 -28,86 -28,82 C-28,78 -34.710637,54.1075 -35.260625,54.1075 C-35.810613,54.1075 -54.6825,20.283131 -54.6825,19.183125 C-54.6825,18.083119 -95.64845,-28.251875 -96.198438,-28.251875 C-96.748425,-28.251875 -101.256885,-32.21432 -101.256885,-32.21432 C-101.256885,-32.21432 -99.537337,-41.751317 -99.537337,-41.751317 Z" fill="#f8dc10"/>
	</g>
	<g>
		<path d="M-101,-34C-101,-34 -101,-34 -101,-34 C-101,-34 -88.480011,-24.480011 -80.5,-16.5 C-76.742696,-12.742696 -59.221833,5.229492 -48.5,24 C-42.833891,33.919549 -27.860223,58.021 -24.584961,86.005859 C-20.894842,117.535378 -29.107358,154.163595 -28.861779,157.340825 C-31.961785,158.890812 -70.271545,192.399963 -70.821533,193.22998 C-71.371521,194.059998 -120.999988,215.612535 -120.999988,215.612535 C-120.999988,215.612535 -121.157275,206.535868 -121.157275,163.085856 C-121.157275,141.689131 -120.390567,95.211109 -115.526123,53.057861 C-110.512413,9.611132 -101.390812,-29.279741 -101,-34 C-101,-34 -101,-34 -101,-34 Z" fill="#5aba27" fill-opacity="0.996"/>
	</g>
	<g>
		<path d="M109,113C109,113 109,113 109,113 C109,113 46.368023,198.613187 28.768017,216.493192 C11.168011,234.373197 -73.64676,304.999296 -73.64676,304.999296 C-73.64676,304.999296 104.516801,306.009738 104.516801,306.009738 C104.516801,306.009738 105.341457,306.009766 105.755078,306.009766 C108.167969,306.009766 108.005859,303.022656 108.005859,303.022656 C108.005859,303.022656 108.230011,118.419983 109,113 Z" fill="#0185e1" fill-opacity="0.996"/>
	</g>
	<g>
		<path d="M22.22159,168.153838C10.280454,187.892161 -9.652009,210.244099 -17.868742,218.460845 C-27.572681,228.1648 -55.270589,251.85347 -79.592985,269.973906 C-94.30579,280.935098 -111.38154,289.49842 -118.142424,292.48895 C-119.835671,293.237921 -120.799889,294.262109 -121,294.262109 C-121,248.197698 -121.099281,212.77689 -121.099281,212.77689 C-121.099281,212.77689 -101.137821,206.718885 -83.154233,196.314147 C-63.214144,184.777439 -44.998994,169.008086 -44.567838,169.008086 C-43.747831,169.008086 -22.547849,149.708098 -14.567838,142.008086 C-10.212298,137.805371 8.987985,116.08934 21.536166,94.259063 C31.978156,76.092959 36.446532,56.884978 36.569187,56.530748 C36.569187,56.530748 46.849877,82.036562 43.026888,108.894805 C39.591037,133.033228 28.250087,156.698752 22.22159,168.153838 " fill="#008b58" fill-opacity="0.996"/>
	</g>
</g></g></svg>